<svg width="673" height="476" viewBox="0 0 673 476" fill="none" xmlns="http://www.w3.org/2000/svg">
<g clip-path="url(#clip0_101_412)">
<g id="right">
<path d="M479.5 127.5L509.5 97L641.5 230.5L509.5 365.5L479.5 336.5L563.5 252H284L320.5 209.5L563.5 210L479.5 127.5Z" fill="url(#paint0_linear_101_412)"/>
<path d="M285.125 252.5L321 209.5H178V252.5H285.125Z" fill="url(#paint1_linear_101_412)"/>
</g>
<g id="left">
<path d="M162 385.5L132 416L-1.16709e-05 282.5L132 147.5L162 176.5L78 261L357.5 261L321 303.5L78 303L162 385.5Z" fill="url(#paint2_linear_101_412)"/>
<path d="M356.375 260.5L320.5 303.5L463.5 303.5L463.5 260.5L356.375 260.5Z" fill="url(#paint3_linear_101_412)"/>
</g>
</g>
<defs>
<linearGradient id="paint0_linear_101_412" x1="462.75" y1="97" x2="462.75" y2="365.5" gradientUnits="userSpaceOnUse">
<stop offset="0.183161" stop-color="#73BC98"/>
<stop offset="0.579163" stop-color="#4D908E"/>
</linearGradient>
<linearGradient id="paint1_linear_101_412" x1="249.5" y1="209.5" x2="249.5" y2="252.5" gradientUnits="userSpaceOnUse">
<stop offset="0.229167" stop-color="#F7F9FA"/>
<stop offset="0.71875" stop-color="#DBE1E8"/>
</linearGradient>
<linearGradient id="paint2_linear_101_412" x1="178.75" y1="416" x2="178.75" y2="147.5" gradientUnits="userSpaceOnUse">
<stop offset="0.11384" stop-color="#99D98C"/>
<stop offset="0.75266" stop-color="#73BC98"/>
</linearGradient>
<linearGradient id="paint3_linear_101_412" x1="392" y1="303.5" x2="392" y2="260.5" gradientUnits="userSpaceOnUse">
<stop offset="0.229167" stop-color="#F7F9FA"/>
<stop offset="0.71875" stop-color="#DBE1E8"/>
</linearGradient>
<clipPath id="clip0_101_412">
<rect width="673" height="476" fill="white"/>
</clipPath>
</defs>
</svg>
