<svg width="382" height="621" viewBox="0 0 382 621" fill="none" xmlns="http://www.w3.org/2000/svg">
<g filter="url(#filter0_d_728_3)">
<path d="M146.187 462.564L185.278 447.56C185.737 447.384 186.245 447.383 186.705 447.558L226.159 462.562C227.874 463.214 227.879 465.638 226.168 466.298L186.714 481.503C186.249 481.682 185.734 481.682 185.27 481.501L146.179 466.295C144.475 465.633 144.48 463.219 146.187 462.564Z" fill="#4D908E"/>
</g>
<g filter="url(#filter1_d_728_3)">
<path d="M146.011 451.645L185.257 436.079C185.729 435.892 186.254 435.891 186.726 436.077L226.337 451.643C228.024 452.306 228.03 454.691 226.345 455.362L186.735 471.137C186.257 471.327 185.725 471.326 185.249 471.135L146.003 455.36C144.326 454.686 144.332 452.311 146.011 451.645Z" fill="#99D98C"/>
</g>
<g filter="url(#filter2_d_728_3)">
<path d="M146.187 437.268L185.278 422.264C185.737 422.088 186.245 422.087 186.705 422.262L226.159 437.266C227.874 437.918 227.879 440.342 226.168 441.001L186.714 456.207C186.249 456.386 185.734 456.385 185.27 456.205L146.179 440.999C144.475 440.336 144.48 437.923 146.187 437.268Z" fill="#73BC98"/>
</g>
<path d="M233.278 257.482H138.995C132.92 257.482 127.995 262.407 127.995 268.482V274.22C127.995 276.043 128.448 277.837 129.313 279.441L168.873 352.803C169.74 354.409 171.418 355.411 173.243 355.411C175.985 355.411 178.208 357.634 178.208 360.376V376.918C178.208 377.47 178.656 377.918 179.208 377.918H193.065C193.617 377.918 194.065 377.47 194.065 376.918V360.376C194.065 357.634 196.288 355.411 199.03 355.411C200.855 355.411 202.533 354.409 203.4 352.803L242.96 279.441C243.825 277.837 244.278 276.043 244.278 274.22V268.482C244.278 262.407 239.353 257.482 233.278 257.482Z" fill="#808A93"/>
<rect x="172.847" y="353.831" width="26.5788" height="9.96706" rx="4.98353" fill="white"/>
<rect x="71.4175" y="29.9012" width="189.374" height="79.7365" rx="8" transform="rotate(45 71.4175 29.9012)" fill="#003C72"/>
<path d="M51.1643 71.3243L65.0236 57.465L69.9733 62.4148C70.7257 63.1671 71.2174 64.035 71.4484 65.0183C71.6859 66.0083 71.6661 66.9982 71.389 67.9882C71.1118 68.9781 70.5937 69.8526 69.8347 70.6116C69.056 71.3903 68.165 71.9117 67.1619 72.1757C66.1719 72.4397 65.182 72.4529 64.192 72.2153C63.2087 71.9711 62.354 71.486 61.6281 70.76L59.0938 68.2258L53.5798 73.7398L51.1643 71.3243ZM61.5093 65.8103L63.7862 68.0872C64.1293 68.4304 64.5286 68.6581 64.984 68.7702C65.4394 68.8824 65.8947 68.8758 66.3501 68.7504C66.8121 68.6317 67.2213 68.3941 67.5777 68.0377C67.9406 67.6747 68.1815 67.2622 68.3003 66.8002C68.4257 66.3449 68.4323 65.8895 68.3201 65.4341C68.2079 64.9787 67.9802 64.5795 67.6371 64.2363L65.3602 61.9594L61.5093 65.8103ZM65.3749 86.0497C64.4641 85.1389 63.8668 84.0731 63.5831 82.8521C63.3059 81.6378 63.3356 80.4135 63.6722 79.1794C64.0219 77.9453 64.6753 76.8497 65.6323 75.8928C66.3582 75.1668 67.1634 74.619 68.0477 74.2495C68.9387 73.8733 69.8461 73.672 70.7701 73.6456C71.7072 73.6192 72.6114 73.771 73.4826 74.101C74.3537 74.431 75.1292 74.9358 75.8089 75.6156C76.7197 76.5263 77.3137 77.5889 77.5908 78.8032C77.8746 80.0242 77.8416 81.2517 77.4918 82.4858C77.1487 83.7266 76.4953 84.8287 75.5317 85.7923C74.8124 86.5116 74.0105 87.0561 73.1262 87.4257C72.2418 87.7953 71.3311 87.9933 70.3939 88.0197C69.47 88.0461 68.5724 87.8943 67.7012 87.5643C66.8367 87.2409 66.0612 86.736 65.3749 86.0497ZM67.7903 83.6342C68.2721 84.116 68.8331 84.4195 69.4733 84.5449C70.1134 84.6703 70.7536 84.6307 71.3938 84.4261C72.0405 84.2282 72.6147 83.8784 73.1163 83.3768C73.631 82.862 73.9841 82.278 74.1755 81.6246C74.3801 80.9712 74.4131 80.3245 74.2745 79.6843C74.1491 79.0441 73.8554 78.493 73.3935 78.0311C72.9183 77.5559 72.3606 77.2556 71.7204 77.1302C71.0803 77.0048 70.4335 77.0444 69.7801 77.249C69.1268 77.4536 68.5493 77.8067 68.0477 78.3083C67.5264 78.8296 67.17 79.417 66.9786 80.0704C66.7872 80.7237 66.7575 81.3672 66.8895 82.0008C67.0347 82.6343 67.335 83.1788 67.7903 83.6342ZM69.5891 99.6486L67.1736 97.2332L82.0229 82.3839L84.4384 84.7994L83.1811 86.0566C83.9533 85.9312 84.7122 85.9642 85.458 86.1556C86.217 86.347 86.9132 86.7595 87.5468 87.3931C88.2728 88.119 88.8139 88.9308 89.1703 89.8283C89.5267 90.7259 89.7016 91.6531 89.695 92.6101C89.7016 93.567 89.5234 94.491 89.1604 95.3819C88.804 96.2795 88.2662 97.088 87.5468 97.8073C86.8274 98.5267 86.0157 99.0679 85.1115 99.4308C84.214 99.8004 83.2834 99.9852 82.3199 99.9852C81.3695 99.9852 80.4456 99.807 79.548 99.4506C78.6504 99.0943 77.8387 98.5531 77.1127 97.8271C76.4792 97.1936 76.0634 96.5006 75.8654 95.7482C75.6806 94.9959 75.6509 94.2336 75.7763 93.4614L69.5891 99.6486ZM85.1907 89.6897C84.6891 89.1882 84.1084 88.8714 83.4484 88.7394C82.795 88.6008 82.1384 88.6371 81.4784 88.8483C80.8184 89.0595 80.2245 89.429 79.6965 89.957C79.1685 90.485 78.7956 91.0823 78.5779 91.7488C78.3667 92.4088 78.3271 93.0688 78.4591 93.7287C78.5977 94.3821 78.9177 94.9596 79.4193 95.4611C79.9275 95.9693 80.5215 96.3059 81.2012 96.4709C81.881 96.6359 82.564 96.626 83.2504 96.4412C83.9434 96.2498 84.5571 95.8868 85.0917 95.3522C85.6197 94.8243 85.9761 94.2171 86.1609 93.5307C86.3457 92.8444 86.3556 92.1613 86.1906 91.4815C86.0388 90.8018 85.7055 90.2045 85.1907 89.6897ZM87.2039 100.038L93.4406 93.8016L95.856 96.2171L90.2529 101.82C89.8635 102.21 89.6028 102.662 89.4709 103.176C89.3455 103.685 89.3455 104.193 89.4709 104.701C89.6094 105.209 89.8701 105.655 90.2529 106.037C90.6489 106.433 91.0977 106.697 91.5992 106.829C92.1074 106.955 92.6156 106.955 93.1238 106.829C93.6385 106.697 94.0906 106.437 94.48 106.047L100.083 100.444L102.499 102.86L92.609 112.769L90.1935 110.354L91.0845 109.443C90.3849 109.456 89.6952 109.334 89.0155 109.077C88.3423 108.813 87.7384 108.413 87.2039 107.879C86.4845 107.159 86.0027 106.328 85.7585 105.384C85.521 104.434 85.5177 103.487 85.7486 102.543C85.9928 101.599 86.4779 100.764 87.2039 100.038ZM94.6486 114.809L109.498 99.9594L111.913 102.375L97.0641 117.224L94.6486 114.809ZM116.653 117.014L119.068 119.429L109.169 129.329L106.753 126.913L107.872 125.577C107.159 125.748 106.44 125.748 105.714 125.577C105.001 125.405 104.341 125.016 103.734 124.409C103.001 123.676 102.454 122.851 102.091 121.934C101.728 121.016 101.546 120.069 101.546 119.093C101.553 118.122 101.737 117.179 102.1 116.261C102.47 115.351 103.021 114.529 103.754 113.796C104.46 113.09 105.252 112.556 106.13 112.193C107.014 111.836 107.925 111.658 108.862 111.658C109.799 111.658 110.706 111.833 111.584 112.183C112.462 112.533 113.254 113.061 113.96 113.767C114.613 114.42 115.052 115.149 115.277 115.954C115.508 116.766 115.58 117.578 115.494 118.39L116.653 117.014ZM106.001 122.023C106.516 122.538 107.1 122.864 107.753 123.003C108.406 123.142 109.063 123.105 109.723 122.894C110.39 122.676 110.987 122.303 111.515 121.775C112.049 121.241 112.422 120.644 112.634 119.984C112.851 119.317 112.888 118.654 112.742 117.994C112.604 117.34 112.28 116.76 111.772 116.251C111.264 115.743 110.667 115.41 109.98 115.252C109.307 115.093 108.628 115.106 107.941 115.291C107.261 115.483 106.654 115.846 106.12 116.38C105.585 116.915 105.225 117.525 105.041 118.212C104.856 118.898 104.843 119.578 105.001 120.251C105.166 120.931 105.499 121.521 106.001 122.023ZM123.931 129.123L122.011 127.203L114.527 134.687L112.111 132.271L119.595 124.787L118.13 123.322L120.546 120.907L122.011 122.372L125.119 119.264L127.535 121.679L124.426 124.787L126.347 126.708L123.931 129.123ZM127.982 128.343L130.398 130.759L120.498 140.658L118.083 138.243L127.982 128.343ZM130.487 128.294C130.13 127.937 129.945 127.521 129.932 127.046C129.926 126.564 130.101 126.145 130.457 125.789C130.807 125.439 131.222 125.268 131.704 125.274C132.186 125.281 132.602 125.459 132.952 125.809C133.301 126.159 133.476 126.571 133.476 127.046C133.483 127.528 133.311 127.944 132.961 128.294C132.605 128.65 132.189 128.828 131.714 128.828C131.246 128.822 130.836 128.643 130.487 128.294ZM126.744 147.419C125.833 146.508 125.236 145.442 124.952 144.221C124.675 143.007 124.705 141.783 125.041 140.549C125.391 139.314 126.044 138.219 127.001 137.262C127.727 136.536 128.533 135.988 129.417 135.619C130.308 135.242 131.215 135.041 132.139 135.015C133.076 134.988 133.981 135.14 134.852 135.47C135.723 135.8 136.498 136.305 137.178 136.985C138.089 137.895 138.683 138.958 138.96 140.172C139.244 141.393 139.211 142.621 138.861 143.855C138.518 145.096 137.864 146.198 136.901 147.161C136.182 147.881 135.38 148.425 134.495 148.795C133.611 149.164 132.7 149.362 131.763 149.389C130.839 149.415 129.942 149.263 129.07 148.933C128.206 148.61 127.43 148.105 126.744 147.419ZM129.159 145.003C129.641 145.485 130.202 145.789 130.842 145.914C131.483 146.039 132.123 146 132.763 145.795C133.41 145.597 133.984 145.248 134.485 144.746C135 144.231 135.353 143.647 135.545 142.994C135.749 142.34 135.782 141.694 135.644 141.053C135.518 140.413 135.225 139.862 134.763 139.4C134.287 138.925 133.73 138.625 133.09 138.499C132.449 138.374 131.803 138.414 131.149 138.618C130.496 138.823 129.918 139.176 129.417 139.677C128.895 140.199 128.539 140.786 128.348 141.439C128.156 142.093 128.127 142.736 128.259 143.37C128.404 144.003 128.704 144.548 129.159 145.003ZM148.817 156.464L142.56 162.72L140.145 160.305L145.768 154.682C146.157 154.293 146.415 153.844 146.54 153.336C146.672 152.821 146.669 152.31 146.53 151.801C146.405 151.293 146.147 150.844 145.758 150.455C145.369 150.066 144.917 149.805 144.402 149.673C143.9 149.541 143.392 149.541 142.877 149.673C142.376 149.805 141.93 150.066 141.541 150.455L135.918 156.078L133.502 153.662L143.392 143.753L145.807 146.169L144.936 147.059C145.629 147.04 146.312 147.162 146.986 147.426C147.665 147.683 148.276 148.082 148.817 148.624C149.536 149.343 150.015 150.178 150.252 151.128C150.497 152.072 150.497 153.016 150.252 153.959C150.021 154.903 149.543 155.738 148.817 156.464Z" fill="white"/>
<rect x="318.315" y="51.4965" width="189.374" height="79.7365" rx="8" transform="rotate(120 318.315 51.4965)" fill="#F9C74F"/>
<path d="M282.022 54.7145L280.195 57.8781L261.125 54.5086L262.809 51.5927L266.186 52.1914L270.086 45.4364L267.879 42.8112L269.562 39.8953L282.022 54.7145ZM272.254 48.0244L269.518 52.7642L277.385 54.1392L272.254 48.0244ZM266.914 70.4816L265.328 73.2286L253.856 66.6051C253.045 66.1371 252.405 65.5473 251.935 64.8358C251.458 64.1198 251.148 63.3402 251.004 62.4968C250.853 61.649 250.862 60.7837 251.032 59.9008C251.194 59.0136 251.509 58.1647 251.977 57.3541C252.432 56.566 253.031 55.9011 253.774 55.3594C254.517 54.8177 255.332 54.4279 256.22 54.19C257.096 53.9552 257.976 53.8973 258.858 54.0163L258.545 57.1834C258.046 57.0952 257.555 57.1123 257.074 57.2349C256.581 57.3606 256.134 57.5726 255.732 57.8707C255.322 58.1645 254.993 58.5253 254.746 58.9531C254.495 59.3884 254.315 59.8396 254.205 60.3068C254.091 60.7814 254.057 61.2473 254.104 61.7043C254.142 62.1571 254.275 62.5688 254.501 62.9396C254.716 63.3136 255.029 63.6198 255.442 63.8581L257.029 64.7746C256.738 64.1358 256.592 63.4612 256.592 62.7506C256.592 62.04 256.793 61.3358 257.196 60.6377C257.664 59.8271 258.256 59.1579 258.971 58.6301C259.686 58.1022 260.47 57.7241 261.322 57.4957C262.178 57.2791 263.051 57.2228 263.941 57.3267C264.828 57.4382 265.68 57.7301 266.498 58.2024C267.316 58.6747 267.995 59.2669 268.535 59.9787C269.07 60.6981 269.454 61.4803 269.687 62.3252C269.923 63.1819 269.991 64.0519 269.891 64.9351C269.792 65.8183 269.508 66.6651 269.04 67.4757C268.637 68.1738 268.128 68.7004 267.512 69.0556C266.905 69.4152 266.251 69.6283 265.552 69.6951L266.914 70.4816ZM259.822 62.199C259.489 62.7769 259.34 63.3718 259.378 63.9837C259.418 64.6073 259.612 65.1897 259.96 65.7309C260.315 66.2765 260.79 66.7204 261.383 67.0627C261.983 67.4094 262.607 67.5944 263.254 67.6177C263.897 67.6485 264.498 67.5254 265.058 67.2484C265.614 66.9789 266.057 66.5589 266.386 65.9885C266.711 65.4256 266.858 64.8248 266.826 64.1861C266.802 63.5518 266.623 62.9528 266.288 62.3891C265.953 61.8253 265.481 61.368 264.873 61.017C264.265 60.666 263.633 60.4863 262.978 60.4781C262.322 60.4698 261.713 60.6138 261.152 60.9101C260.591 61.2065 260.147 61.6361 259.822 62.199ZM252.5 69.4482L263.765 75.937L262.179 78.684L261.17 78.1167C261.354 78.7335 261.409 79.3755 261.334 80.0428C261.267 80.7143 261.055 81.3578 260.7 81.9733C260.462 82.3861 260.163 82.7642 259.805 83.1077L257.659 80.4279C257.936 80.2077 258.157 79.955 258.322 79.6698C258.578 79.2269 258.703 78.7588 258.698 78.2654C258.695 77.7838 258.573 77.328 258.331 76.898C258.092 76.4798 257.751 76.1429 257.309 75.8872L250.914 72.1952L252.5 69.4482ZM258.966 84.2488L257.38 86.9958L246.121 80.4958L247.707 77.7488L258.966 84.2488ZM259.612 86.4833C259.846 86.078 260.175 85.8123 260.598 85.6863C261.028 85.5646 261.446 85.6207 261.851 85.8547C262.249 86.0844 262.503 86.4161 262.613 86.8498C262.723 87.2835 262.663 87.6993 262.433 88.097C262.204 88.4948 261.876 88.7508 261.449 88.865C261.019 88.9867 260.605 88.9328 260.207 88.7031C259.802 88.4691 259.542 88.139 259.428 87.7128C259.321 87.2909 259.382 86.8811 259.612 86.4833ZM244.07 91.8748L241.3 93.5782C240.894 92.6529 240.702 91.6765 240.725 90.649C240.748 89.6214 241.026 88.646 241.559 87.7228C242.157 86.6871 242.969 85.8952 243.996 85.3472C245.019 84.8068 246.124 84.5392 247.312 84.5445C248.503 84.5616 249.642 84.8843 250.731 85.5127C251.556 85.9893 252.241 86.5798 252.785 87.2842C253.337 87.9929 253.735 88.7585 253.981 89.5809C254.23 90.4151 254.311 91.2625 254.224 92.1232C254.138 92.9839 253.871 93.8008 253.425 94.5738C252.892 95.497 252.186 96.2254 251.308 96.759C250.429 97.2925 249.48 97.6103 248.461 97.7122L248.562 94.4683C249.014 94.379 249.427 94.2018 249.8 93.9369C250.169 93.6795 250.461 93.3631 250.678 92.9878C250.99 92.4474 251.121 91.8729 251.073 91.2642C251.031 90.6599 250.84 90.0893 250.5 89.5525C250.167 89.02 249.715 88.589 249.145 88.2597C248.582 87.9347 247.983 87.759 247.347 87.7325C246.72 87.7103 246.134 87.8324 245.59 88.0987C245.046 88.3651 244.618 88.7684 244.306 89.3088C244.08 89.6991 243.948 90.1183 243.91 90.5664C243.879 91.0188 243.932 91.455 244.07 91.8748ZM242.662 96.1072L249.755 100.202L248.169 102.949L241.797 99.2702C241.354 99.0145 240.886 98.8894 240.392 98.8947C239.907 98.9044 239.451 99.0265 239.025 99.2611C238.603 99.5075 238.266 99.8484 238.014 100.284C237.754 100.734 237.625 101.2 237.628 101.682C237.637 102.168 237.759 102.623 237.994 103.049C238.236 103.479 238.579 103.822 239.021 104.078L245.394 107.757L243.808 110.504L232.543 104.015L234.129 101.268L235.16 101.848C234.98 101.224 234.924 100.576 234.991 99.9042C235.066 99.237 235.279 98.5994 235.63 97.9915C236.102 97.1734 236.732 96.5414 237.52 96.0956C238.316 95.6541 239.164 95.4235 240.066 95.4039C240.971 95.3961 241.837 95.6305 242.662 96.1072ZM231.204 106.334L248.091 116.084L246.505 118.831L229.618 109.081L231.204 106.334ZM233.082 122.736L234.343 120.552L225.832 115.638L227.418 112.891L235.929 117.805L236.891 116.139L239.638 117.725L238.676 119.391L242.212 121.432L240.626 124.179L237.09 122.138L235.829 124.322L233.082 122.736ZM227.822 121.812L234.914 125.907L233.328 128.654L226.956 124.975C226.513 124.72 226.045 124.594 225.552 124.6C225.066 124.609 224.61 124.732 224.184 124.966C223.762 125.213 223.425 125.553 223.174 125.989C222.914 126.439 222.785 126.905 222.787 127.387C222.796 127.873 222.919 128.328 223.153 128.754C223.395 129.184 223.738 129.527 224.181 129.783L230.553 133.462L228.967 136.209L217.702 129.72L219.288 126.973L220.319 127.553C220.139 126.929 220.083 126.281 220.15 125.609C220.225 124.942 220.438 124.304 220.789 123.697C221.262 122.878 221.892 122.246 222.679 121.801C223.475 121.359 224.323 121.129 225.225 121.109C226.131 121.101 226.996 121.336 227.822 121.812ZM216.394 131.985L227.659 138.473L226.073 141.22L225.065 140.653C225.249 141.27 225.304 141.912 225.229 142.579C225.161 143.251 224.95 143.894 224.594 144.51C224.356 144.923 224.058 145.301 223.699 145.644L221.554 142.964C221.831 142.744 222.052 142.491 222.217 142.206C222.472 141.763 222.597 141.295 222.592 140.802C222.59 140.32 222.468 139.864 222.226 139.434C221.987 139.016 221.646 138.679 221.203 138.424L214.808 134.732L216.394 131.985ZM208.729 144.586C209.327 143.55 210.139 142.759 211.166 142.211C212.188 141.67 213.297 141.405 214.493 141.414C215.684 141.431 216.823 141.754 217.912 142.383C218.73 142.855 219.411 143.443 219.955 144.148C220.506 144.856 220.905 145.622 221.151 146.444C221.4 147.278 221.481 148.126 221.394 148.987C221.308 149.847 221.041 150.664 220.595 151.437C220.088 152.315 219.437 153.01 218.641 153.521C217.849 154.045 216.982 154.375 216.042 154.513C215.102 154.651 214.152 154.597 213.192 154.353C212.232 154.109 211.339 153.664 210.512 153.016L215.263 144.786C214.782 144.649 214.303 144.602 213.827 144.648C213.358 144.697 212.916 144.847 212.501 145.098C212.094 145.353 211.752 145.711 211.476 146.172C211.191 146.648 211.052 147.149 211.059 147.673C211.07 148.21 211.202 148.726 211.456 149.223L209.184 151.649C208.45 150.615 208.026 149.46 207.913 148.183C207.807 146.911 208.079 145.712 208.729 144.586ZM217.375 145.886L214.177 151.425C214.675 151.602 215.182 151.66 215.699 151.598C216.218 151.547 216.699 151.39 217.142 151.125C217.585 150.86 217.937 150.503 218.197 150.053C218.457 149.602 218.589 149.123 218.592 148.615C218.603 148.11 218.502 147.617 218.29 147.135C218.082 146.664 217.777 146.248 217.375 145.886Z" fill="white"/>
<rect x="186.742" width="189.374" height="79.7365" rx="8" transform="rotate(75 186.742 0)" fill="#81B29A"/>
<path d="M164.167 40.8188L164.894 43.5331L152.689 52.0731L152.018 49.5714L154.181 48.0602L152.628 42.2646L150 42.0371L149.329 39.5354L164.167 40.8188ZM155.215 42.4928L156.305 46.5593L161.332 43.0278L155.215 42.4928ZM153.09 53.5714L162.747 50.9735L163.378 53.3304L162.521 53.5704C162.957 53.8056 163.336 54.1251 163.658 54.5288C163.987 54.9308 164.222 55.3958 164.363 55.9239C164.458 56.278 164.501 56.646 164.493 57.0278L161.869 56.7372C161.9 56.4666 161.882 56.209 161.817 55.9643C161.715 55.5843 161.528 55.2616 161.257 54.9961C160.994 54.7353 160.68 54.5538 160.314 54.4516C159.957 54.3542 159.588 54.3563 159.208 54.4581L153.722 55.9282L153.09 53.5714ZM163.769 64.2155L163.267 62.3416L155.964 64.2983L155.333 61.9414L162.635 59.9847L162.252 58.5552L164.609 57.9236L164.992 59.3532L168.025 58.5405L168.657 60.8974L165.624 61.7101L166.126 63.584L163.769 64.2155ZM166.553 65.1794L167.185 67.5363L157.526 70.1245L156.894 67.7676L166.553 65.1794ZM168.12 66.0433C168.027 65.6955 168.061 65.3724 168.223 65.0737C168.391 64.7733 168.649 64.5765 168.996 64.4834C169.338 64.3919 169.656 64.4343 169.952 64.6104C170.247 64.7866 170.441 65.0453 170.532 65.3866C170.624 65.7279 170.585 66.0455 170.415 66.3394C170.247 66.6398 169.992 66.8357 169.651 66.9272C169.303 67.0203 168.983 66.9821 168.689 66.8124C168.401 66.6409 168.212 66.3846 168.12 66.0433ZM170.568 72.0482L168.539 72.5917L169.246 75.2287L166.889 75.8602L166.183 73.2232L158.88 75.1799L158.249 72.823L165.551 70.8663L165.269 69.8135L167.626 69.182L167.908 70.2348L169.936 69.6913C170.49 69.5429 171.032 69.5427 171.562 69.6906C172.099 69.8433 172.566 70.1152 172.96 70.5064C173.361 70.8959 173.637 71.3707 173.787 71.9309C173.896 72.3366 173.92 72.7615 173.86 73.2056C173.799 73.6497 173.636 74.0729 173.372 74.4752L171.255 73.2203C171.349 73.1331 171.407 73.0278 171.429 72.9045C171.459 72.7859 171.46 72.6719 171.43 72.5625C171.38 72.3757 171.269 72.2296 171.095 72.1242C170.93 72.0235 170.755 71.9981 170.568 72.0482ZM169.652 76.7441L170.284 79.101L160.624 81.6892L159.993 79.3323L169.652 76.7441ZM171.219 77.608C171.126 77.2602 171.16 76.937 171.322 76.6384C171.49 76.338 171.747 76.1412 172.095 76.0481C172.436 75.9566 172.755 75.999 173.051 76.1751C173.346 76.3513 173.54 76.61 173.631 76.9513C173.723 77.2926 173.684 77.6102 173.514 77.9041C173.346 78.2045 173.091 78.4004 172.75 78.4919C172.402 78.585 172.081 78.5468 171.787 78.3771C171.5 78.2056 171.31 77.9493 171.219 77.608ZM165.698 88.9943L165.118 91.4273C164.393 91.1452 163.758 90.7185 163.212 90.1471C162.665 89.5757 162.286 88.894 162.073 88.102C161.835 87.2133 161.847 86.3407 162.107 85.4841C162.369 84.6339 162.825 83.8872 163.474 83.244C164.131 82.6055 164.926 82.1612 165.86 81.911C166.568 81.7212 167.262 81.6699 167.941 81.7571C168.627 81.8426 169.26 82.0422 169.841 82.3558C170.43 82.6742 170.935 83.091 171.356 83.6062C171.777 84.1215 172.077 84.7108 172.254 85.374C172.467 86.1661 172.479 86.9461 172.291 87.7142C172.104 88.4823 171.76 89.1713 171.261 89.7812L169.552 87.9616C169.749 87.6672 169.877 87.3465 169.936 86.9994C169.997 86.6588 169.984 86.3275 169.897 86.0055C169.773 85.5419 169.532 85.1578 169.175 84.8534C168.823 84.5472 168.409 84.3407 167.932 84.2339C167.461 84.1254 166.981 84.1367 166.492 84.2678C166.009 84.3972 165.587 84.6275 165.227 84.9586C164.874 85.288 164.622 85.673 164.471 86.1138C164.319 86.5546 164.306 87.0068 164.43 87.4705C164.52 87.8053 164.676 88.1051 164.899 88.3698C165.128 88.6328 165.395 88.8409 165.698 88.9943ZM173.383 90.667L174.014 93.0239L164.355 95.6121L163.723 93.2552L173.383 90.667ZM174.95 91.5309C174.856 91.1832 174.891 90.86 175.052 90.5613C175.22 90.2609 175.478 90.0642 175.826 89.971C176.167 89.8795 176.486 89.9219 176.781 90.098C177.077 90.2742 177.27 90.5329 177.362 90.8742C177.453 91.2155 177.414 91.5331 177.244 91.827C177.077 92.1274 176.822 92.3233 176.481 92.4148C176.133 92.5079 175.812 92.4697 175.518 92.3C175.231 92.1285 175.041 91.8722 174.95 91.5309ZM176.527 102.402L177.159 104.759L167.499 107.347L166.868 104.991L168.037 104.563C167.535 104.415 167.09 104.158 166.702 103.793C166.323 103.432 166.053 102.955 165.895 102.363C165.703 101.648 165.659 100.942 165.762 100.245C165.865 99.548 166.091 98.8974 166.44 98.2932C166.79 97.6954 167.242 97.1776 167.794 96.7398C168.348 96.3084 168.982 95.9969 169.697 95.8054C170.386 95.6208 171.067 95.5729 171.739 95.6619C172.414 95.7573 173.041 95.9723 173.621 96.307C174.2 96.6417 174.699 97.074 175.117 97.6038C175.535 98.1337 175.837 98.7431 176.021 99.4322C176.192 100.07 176.203 100.678 176.054 101.256C175.907 101.84 175.662 102.368 175.319 102.84L176.527 102.402ZM168.149 101.697C168.284 102.199 168.528 102.61 168.883 102.929C169.238 103.248 169.657 103.46 170.14 103.565C170.631 103.668 171.133 103.651 171.648 103.513C172.17 103.373 172.614 103.137 172.98 102.804C173.353 102.47 173.612 102.072 173.758 101.612C173.906 101.158 173.913 100.684 173.78 100.188C173.648 99.692 173.397 99.2726 173.029 98.9294C172.669 98.591 172.244 98.3564 171.753 98.2256C171.265 98.1012 170.759 98.1089 170.238 98.2487C169.716 98.3885 169.276 98.6376 168.916 98.9962C168.557 99.3548 168.306 99.7706 168.163 100.244C168.023 100.723 168.018 101.207 168.149 101.697ZM168.03 109.329L182.519 105.447L183.151 107.803L168.662 111.686L168.03 109.329ZM178.943 111.419L179.575 113.776L169.915 116.364L169.284 114.008L178.943 111.419ZM180.51 112.283C180.417 111.935 180.451 111.612 180.613 111.314C180.781 111.013 181.039 110.816 181.386 110.723C181.728 110.632 182.046 110.674 182.342 110.85C182.637 111.026 182.831 111.285 182.922 111.626C183.014 111.968 182.975 112.285 182.805 112.579C182.637 112.88 182.382 113.076 182.041 113.167C181.693 113.26 181.373 113.222 181.079 113.052C180.791 112.881 180.602 112.624 180.51 112.283ZM171.087 121.431C170.984 120.92 170.954 120.408 170.995 119.893C171.045 119.382 171.17 118.907 171.369 118.467C171.569 118.027 171.849 117.655 172.209 117.352L173.592 119.114C173.484 119.226 173.38 119.388 173.278 119.602C173.183 119.814 173.119 120.052 173.086 120.316C173.055 120.586 173.079 120.867 173.156 121.156C173.222 121.401 173.316 121.624 173.439 121.826C173.57 122.032 173.725 122.184 173.903 122.282C174.082 122.385 174.285 122.407 174.51 122.346C174.749 122.283 174.91 122.15 174.994 121.948C175.086 121.751 175.13 121.518 175.127 121.249C175.133 120.986 175.133 120.73 175.129 120.483C175.088 119.838 175.125 119.218 175.241 118.62C175.359 118.03 175.577 117.519 175.897 117.089C176.224 116.663 176.678 116.372 177.257 116.217C177.895 116.046 178.49 116.066 179.044 116.276C179.599 116.493 180.074 116.839 180.471 117.312C180.868 117.792 181.152 118.348 181.321 118.979C181.526 119.745 181.553 120.49 181.402 121.214C181.259 121.943 180.948 122.571 180.468 123.1L178.868 121.531C178.998 121.399 179.106 121.236 179.192 121.04C179.284 120.843 179.344 120.63 179.373 120.402C179.408 120.172 179.401 119.942 179.354 119.713C179.289 119.42 179.193 119.163 179.064 118.942C178.936 118.721 178.775 118.557 178.581 118.45C178.388 118.35 178.163 118.334 177.905 118.403C177.661 118.469 177.503 118.615 177.433 118.841C177.368 119.065 177.34 119.321 177.348 119.609C177.358 119.903 177.358 120.186 177.348 120.458C177.313 121.074 177.227 121.667 177.089 122.235C176.954 122.81 176.73 123.301 176.418 123.709C176.106 124.117 175.675 124.388 175.124 124.522C174.5 124.689 173.902 124.649 173.332 124.401C172.768 124.152 172.285 123.764 171.881 123.237C171.48 122.717 171.215 122.115 171.087 121.431ZM184.317 131.475L184.949 133.831L175.289 136.42L174.658 134.063L175.827 133.636C175.325 133.487 174.88 133.23 174.492 132.865C174.112 132.504 173.843 132.028 173.685 131.435C173.493 130.72 173.449 130.014 173.552 129.317C173.655 128.62 173.881 127.969 174.23 127.365C174.58 126.768 175.032 126.25 175.584 125.812C176.138 125.38 176.772 125.069 177.487 124.878C178.176 124.693 178.857 124.645 179.529 124.734C180.204 124.829 180.831 125.044 181.41 125.379C181.99 125.714 182.489 126.146 182.907 126.676C183.325 127.206 183.626 127.815 183.811 128.504C183.982 129.142 183.993 129.75 183.844 130.328C183.697 130.912 183.452 131.441 183.109 131.912L184.317 131.475ZM175.939 130.769C176.073 131.271 176.318 131.682 176.673 132.001C177.027 132.32 177.447 132.532 177.93 132.637C178.42 132.74 178.923 132.723 179.438 132.585C179.96 132.445 180.404 132.209 180.77 131.876C181.143 131.542 181.402 131.144 181.548 130.684C181.696 130.231 181.703 129.756 181.57 129.26C181.437 128.764 181.187 128.345 180.819 128.002C180.459 127.663 180.034 127.429 179.543 127.298C179.054 127.173 178.549 127.181 178.028 127.321C177.506 127.461 177.066 127.71 176.706 128.068C176.347 128.427 176.096 128.843 175.953 129.316C175.813 129.795 175.808 130.279 175.939 130.769ZM184.495 141.565L183.993 139.691L176.69 141.648L176.059 139.291L183.361 137.334L182.978 135.905L185.335 135.273L185.718 136.703L188.751 135.89L189.382 138.247L186.349 139.06L186.852 140.933L184.495 141.565ZM187.279 142.529L187.911 144.886L178.251 147.474L177.62 145.117L187.279 142.529ZM188.846 143.393C188.753 143.045 188.787 142.722 188.949 142.423C189.117 142.123 189.374 141.926 189.722 141.833C190.063 141.741 190.382 141.784 190.678 141.96C190.973 142.136 191.167 142.395 191.258 142.736C191.35 143.077 191.311 143.395 191.141 143.689C190.973 143.989 190.718 144.185 190.377 144.277C190.029 144.37 189.708 144.332 189.414 144.162C189.127 143.99 188.937 143.734 188.846 143.393ZM179.7 153.887C179.462 152.998 179.474 152.126 179.734 151.269C179.996 150.419 180.452 149.672 181.101 149.029C181.758 148.39 182.553 147.946 183.487 147.696C184.195 147.506 184.889 147.455 185.568 147.542C186.254 147.627 186.887 147.827 187.468 148.141C188.057 148.459 188.562 148.876 188.983 149.391C189.404 149.906 189.704 150.496 189.881 151.159C190.119 152.048 190.107 152.917 189.845 153.767C189.585 154.624 189.126 155.371 188.469 156.01C187.813 156.655 187.015 157.103 186.075 157.355C185.373 157.543 184.683 157.594 184.004 157.506C183.325 157.419 182.691 157.216 182.102 156.898C181.521 156.584 181.02 156.17 180.599 155.655C180.179 155.146 179.88 154.557 179.7 153.887ZM182.057 153.255C182.183 153.725 182.422 154.114 182.773 154.42C183.124 154.726 183.534 154.93 184.003 155.032C184.474 155.141 184.954 155.129 185.444 154.998C185.946 154.864 186.373 154.628 186.725 154.293C187.085 153.961 187.336 153.573 187.479 153.128C187.63 152.687 187.645 152.241 187.524 151.79C187.4 151.327 187.162 150.942 186.811 150.636C186.46 150.329 186.046 150.123 185.569 150.016C185.091 149.909 184.608 149.922 184.119 150.053C183.61 150.189 183.18 150.425 182.828 150.761C182.476 151.097 182.228 151.484 182.083 151.923C181.947 152.367 181.938 152.811 182.057 153.255ZM190.124 167.365L184.019 169.001L183.388 166.644L188.874 165.174C189.254 165.072 189.574 164.887 189.833 164.617C190.098 164.346 190.279 164.028 190.375 163.664C190.479 163.305 190.48 162.936 190.378 162.556C190.276 162.176 190.09 161.853 189.818 161.588C189.555 161.327 189.241 161.145 188.875 161.043C188.518 160.946 188.149 160.948 187.769 161.05L182.283 162.52L181.651 160.163L191.308 157.565L191.939 159.922L191.082 160.162C191.518 160.397 191.897 160.717 192.219 161.12C192.548 161.522 192.783 161.987 192.924 162.515C193.112 163.217 193.11 163.905 192.918 164.577C192.732 165.248 192.395 165.832 191.907 166.329C191.427 166.83 190.832 167.175 190.124 167.365Z" fill="white"/>
<path d="M86.4659 305.197C86.4659 297.194 92.9539 290.706 100.957 290.706H113.97C121.973 290.706 128.461 297.194 128.461 305.197V305.197V305.197C128.461 313.2 121.973 319.688 113.97 319.688H100.957C92.9539 319.688 86.4659 313.2 86.4659 305.197V305.197Z" fill="#577590"/>
<path d="M116.631 296.029H97.704L105.275 306.287V313.379L109.06 315.548V306.287L116.631 296.029Z" fill="white"/>
<path d="M98.8734 340.724C98.8734 333.657 104.602 327.929 111.669 327.929H123.301C130.367 327.929 136.096 333.657 136.096 340.724V340.724V340.724C136.096 347.791 130.367 353.519 123.301 353.519H111.669C104.602 353.519 98.8734 347.791 98.8734 340.724V340.724Z" fill="#577590"/>
<path d="M125.19 332.581H109.78C109.409 332.581 109.11 332.881 109.11 333.251V348.662C109.11 349.032 109.409 349.332 109.78 349.332H125.19C125.56 349.332 125.86 349.032 125.86 348.662V333.251C125.86 332.881 125.56 332.581 125.19 332.581ZM115.981 346.254H114.918C114.872 346.254 114.824 346.231 114.794 346.193L114.051 345.282L113.308 346.193C113.293 346.212 113.274 346.227 113.253 346.238C113.232 346.248 113.208 346.254 113.184 346.254H112.12C111.982 346.254 111.907 346.088 111.999 345.979L113.312 344.371L112.03 342.803C111.94 342.694 112.016 342.529 112.154 342.529H113.22C113.266 342.529 113.314 342.552 113.343 342.59L114.055 343.461L114.767 342.59C114.798 342.55 114.842 342.529 114.891 342.529H115.954C116.092 342.529 116.168 342.694 116.078 342.803L114.794 344.369L116.107 345.977C116.195 346.088 116.12 346.254 115.981 346.254ZM116.145 338.256C116.145 338.302 116.115 338.339 116.078 338.339H114.637V339.778C114.637 339.818 114.599 339.847 114.553 339.847H113.548C113.502 339.847 113.465 339.818 113.465 339.78V338.339H112.024C111.986 338.339 111.957 338.302 111.957 338.256V337.251C111.957 337.204 111.986 337.167 112.024 337.167H113.465V335.726C113.465 335.689 113.502 335.659 113.548 335.659H114.553C114.599 335.659 114.637 335.689 114.637 335.726V337.167H116.076C116.115 337.167 116.145 337.204 116.145 337.251V338.256ZM123.012 345.982C123.012 346.028 122.983 346.065 122.945 346.065H118.892C118.854 346.065 118.825 346.028 118.825 345.982V344.977C118.825 344.931 118.854 344.893 118.892 344.893H122.943C122.983 344.893 123.012 344.931 123.012 344.977V345.982ZM123.012 343.804C123.012 343.85 122.983 343.888 122.945 343.888H118.892C118.854 343.888 118.825 343.85 118.825 343.804V342.799C118.825 342.753 118.854 342.715 118.892 342.715H122.943C122.983 342.715 123.012 342.753 123.012 342.799V343.804ZM123.012 338.256C123.012 338.302 122.983 338.339 122.945 338.339H118.892C118.854 338.339 118.825 338.302 118.825 338.256V337.251C118.825 337.204 118.854 337.167 118.892 337.167H122.943C122.983 337.167 123.012 337.204 123.012 337.251V338.256Z" fill="white"/>
<path d="M232.982 340.724C232.982 333.657 238.711 327.929 245.778 327.929H257.41C264.476 327.929 270.205 333.657 270.205 340.724V340.724V340.724C270.205 347.791 264.476 353.519 257.41 353.519H245.778C238.711 353.519 232.982 347.791 232.982 340.724V340.724Z" fill="#577590"/>
<path d="M245.39 336.343L245.39 338.109C245.39 339.952 246.888 341.45 248.73 341.45C249.52 341.45 250.162 342.092 250.162 342.882L250.162 344.329C249.054 344.726 248.253 345.774 248.253 347.017C248.253 348.596 249.538 349.88 251.116 349.88C252.695 349.88 253.98 348.596 253.98 347.017C253.98 345.774 253.179 344.726 252.071 344.33L252.071 342.882C252.071 342.092 252.713 341.45 253.502 341.45C255.345 341.45 256.843 339.952 256.843 338.109L256.843 336.343C257.951 335.947 258.752 334.898 258.752 333.655C258.752 332.077 257.467 330.792 255.889 330.792C254.31 330.792 253.025 332.077 253.025 333.655C253.025 334.898 253.826 335.947 254.934 336.343L254.934 338.109C254.934 338.899 254.292 339.541 253.502 339.541C252.568 339.541 251.723 339.93 251.116 340.551C250.509 339.93 249.665 339.541 248.73 339.541C247.941 339.541 247.299 338.899 247.299 338.109L247.299 336.343C248.407 335.947 249.208 334.898 249.208 333.655C249.208 332.077 247.923 330.792 246.344 330.792C244.766 330.792 243.481 332.077 243.481 333.655C243.481 334.898 244.282 335.947 245.39 336.343V336.343ZM255.889 332.701C256.415 332.701 256.843 333.129 256.843 333.655C256.843 334.181 256.415 334.61 255.889 334.61C255.362 334.61 254.934 334.181 254.934 333.655C254.934 333.129 255.362 332.701 255.889 332.701ZM251.116 347.972C250.59 347.972 250.162 347.543 250.162 347.017C250.162 346.491 250.59 346.063 251.116 346.063C251.643 346.063 252.071 346.491 252.071 347.017C252.071 347.543 251.643 347.972 251.116 347.972ZM246.344 332.701C246.871 332.701 247.299 333.129 247.299 333.655C247.299 334.181 246.871 334.61 246.344 334.61C245.817 334.61 245.39 334.181 245.39 333.655C245.39 333.129 245.817 332.701 246.344 332.701Z" fill="white"/>
<path d="M242.527 306.185C242.527 297.636 249.457 290.706 258.006 290.706H271.905C280.454 290.706 287.385 297.636 287.385 306.185V306.185V306.185C287.385 314.734 280.454 321.664 271.905 321.664H258.006C249.457 321.664 242.527 314.734 242.527 306.185V306.185Z" fill="#577590"/>
<path d="M273.262 311.858L270.063 308.659C269.918 308.515 269.722 308.435 269.517 308.435H268.994C269.88 307.302 270.406 305.878 270.406 304.328C270.406 300.642 267.419 297.656 263.732 297.656C260.046 297.656 257.058 300.642 257.058 304.328C257.058 308.015 260.045 311.001 263.732 311.001C265.282 311.001 266.707 310.475 267.839 309.59V310.113C267.839 310.318 267.919 310.514 268.064 310.658L271.263 313.856C271.564 314.158 272.052 314.158 272.35 313.856L273.258 312.948C273.56 312.647 273.56 312.159 273.262 311.858V311.858ZM263.732 308.948C261.18 308.948 259.112 306.884 259.112 304.328C259.112 301.777 261.177 299.709 263.732 299.709C266.284 299.709 268.352 301.773 268.352 304.328C268.352 306.88 266.288 308.948 263.732 308.948ZM263.733 301.249C262.424 301.249 261.364 302.309 261.364 303.618C261.364 304.675 262.912 306.603 263.505 307.303C263.533 307.336 263.568 307.363 263.607 307.381C263.647 307.4 263.689 307.409 263.733 307.409C263.776 307.409 263.819 307.4 263.858 307.381C263.898 307.363 263.932 307.336 263.96 307.303C264.553 306.603 266.102 304.676 266.102 303.618C266.102 302.309 265.041 301.249 263.733 301.249V301.249ZM263.733 304.329C263.307 304.329 262.963 303.984 262.963 303.559C262.963 303.134 263.308 302.789 263.733 302.789C264.158 302.789 264.503 303.134 264.503 303.559C264.503 303.984 264.158 304.329 263.733 304.329Z" fill="white"/>
<rect x="271" y="466" width="111" height="79" rx="12" fill="white"/>
<rect x="133" y="542" width="111" height="79" rx="12" fill="white"/>
<path d="M207.666 567.548L188.121 587.024H185.436L179.183 580.793L165.335 594.593L162.649 591.917L177.84 576.779H180.526L186.778 583.01L206.323 563.534H209.008L216.603 571.103L213.918 573.779L207.666 567.548Z" fill="#73BC98"/>
<circle cx="179.672" cy="579.163" r="4.67867" fill="#A9E19E"/>
<circle cx="207.644" cy="564.928" r="4.38003" fill="#4D908E"/>
<path d="M215.21 604.732V608.529H163.951L162.052 606.63V555.371H165.849V604.732H215.21Z" fill="#577590"/>
<rect y="458" width="110" height="80" rx="12" fill="white"/>
<path d="M313.589 528.564V475.254L308.009 478.112C300.995 481.705 296.583 488.922 296.583 496.802V522.689C296.583 529.528 303.911 533.868 309.909 530.581L313.589 528.564Z" fill="#73BC98"/>
<path d="M337.231 484.115L317.183 474.977V528.148L337.231 536.502V484.115Z" fill="#4D908E"/>
<path d="M340.549 536.778V483.733C347.995 479.318 357.416 484.685 357.416 493.342V512.791C357.416 522.04 352.31 530.533 344.141 534.871L340.549 536.778Z" fill="#577590"/>
<path d="M84.8047 486.226H26.6635C26.6635 477.327 33.8777 470.113 42.7769 470.113H68.6913C77.5905 470.113 84.8047 477.327 84.8047 486.226Z" fill="#577590"/>
<path d="M46.7951 528.254L46.7951 492.871L64.3726 492.871L64.3726 528.254L46.7951 528.254Z" fill="#73BC98"/>
<path d="M69.7811 528.254L69.7811 492.871L84.8047 492.871L84.8047 513.231C84.8047 521.528 78.0784 528.254 69.7811 528.254Z" fill="#4D908E"/>
<path d="M26.6635 513.231L26.6635 492.871L41.6871 492.871L41.6871 528.254C33.3898 528.254 26.6635 521.528 26.6635 513.231Z" fill="#88CB9A"/>
<path d="M220.251 488.46C220.251 488.46 224.654 500.785 231.407 505.616C236.616 509.342 247.606 511.743 247.606 511.743" stroke="black" stroke-linecap="round"/>
<path d="M247.562 506.659L249.057 511.589C249.187 512.019 249.015 512.483 248.636 512.724L245.108 514.965" stroke="black" stroke-linecap="round"/>
<path d="M185.89 493.996C185.89 493.996 184.652 502.632 184.727 508.273C184.807 514.268 186.461 523.67 186.461 523.67" stroke="black" stroke-linecap="round"/>
<path d="M190.944 520.293L186.885 524.937C186.618 525.242 186.194 525.356 185.811 525.226L180.17 523.315" stroke="black" stroke-linecap="round"/>
<path d="M187.385 385.402C187.385 385.402 189.217 393.106 189.283 398.012C189.352 403.228 187.882 411.217 187.882 411.217" stroke="black" stroke-linecap="round"/>
<path d="M191.951 410.311L188.596 412.352C188.212 412.585 187.719 412.534 187.391 412.225L184.475 409.48" stroke="black" stroke-linecap="round"/>
<path d="M185.536 220.936C185.536 220.936 187.414 228.628 187.509 233.535C187.609 238.75 186.187 246.747 186.187 246.747" stroke="black" stroke-linecap="round"/>
<path d="M190.25 245.817L186.908 247.877C186.525 248.114 186.031 248.065 185.702 247.758L182.77 245.031" stroke="black" stroke-linecap="round"/>
<path d="M151.922 487.26C151.922 487.26 147.411 499.04 139.921 502.864C134.143 505.814 121.729 506.512 121.729 506.512" stroke="black" stroke-linecap="round"/>
<path d="M122.181 502.506L120.248 506.089C120.018 506.516 120.128 507.047 120.509 507.348L123.842 509.981" stroke="black" stroke-linecap="round"/>
<defs>
<filter id="filter0_d_728_3" x="140.904" y="447.428" width="90.5446" height="42.2094" filterUnits="userSpaceOnUse" color-interpolation-filters="sRGB">
<feFlood flood-opacity="0" result="BackgroundImageFix"/>
<feColorMatrix in="SourceAlpha" type="matrix" values="0 0 0 0 0 0 0 0 0 0 0 0 0 0 0 0 0 0 127 0" result="hardAlpha"/>
<feOffset dy="4"/>
<feGaussianBlur stdDeviation="2"/>
<feComposite in2="hardAlpha" operator="out"/>
<feColorMatrix type="matrix" values="0 0 0 0 0 0 0 0 0 0 0 0 0 0 0 0 0 0 0.25 0"/>
<feBlend mode="normal" in2="BackgroundImageFix" result="effect1_dropShadow_728_3"/>
<feBlend mode="normal" in="SourceGraphic" in2="effect1_dropShadow_728_3" result="shape"/>
</filter>
<filter id="filter1_d_728_3" x="140.749" y="435.938" width="90.8569" height="43.3406" filterUnits="userSpaceOnUse" color-interpolation-filters="sRGB">
<feFlood flood-opacity="0" result="BackgroundImageFix"/>
<feColorMatrix in="SourceAlpha" type="matrix" values="0 0 0 0 0 0 0 0 0 0 0 0 0 0 0 0 0 0 127 0" result="hardAlpha"/>
<feOffset dy="4"/>
<feGaussianBlur stdDeviation="2"/>
<feComposite in2="hardAlpha" operator="out"/>
<feColorMatrix type="matrix" values="0 0 0 0 0 0 0 0 0 0 0 0 0 0 0 0 0 0 0.25 0"/>
<feBlend mode="normal" in2="BackgroundImageFix" result="effect1_dropShadow_728_3"/>
<feBlend mode="normal" in="SourceGraphic" in2="effect1_dropShadow_728_3" result="shape"/>
</filter>
<filter id="filter2_d_728_3" x="140.904" y="422.131" width="90.5446" height="42.2094" filterUnits="userSpaceOnUse" color-interpolation-filters="sRGB">
<feFlood flood-opacity="0" result="BackgroundImageFix"/>
<feColorMatrix in="SourceAlpha" type="matrix" values="0 0 0 0 0 0 0 0 0 0 0 0 0 0 0 0 0 0 127 0" result="hardAlpha"/>
<feOffset dy="4"/>
<feGaussianBlur stdDeviation="2"/>
<feComposite in2="hardAlpha" operator="out"/>
<feColorMatrix type="matrix" values="0 0 0 0 0 0 0 0 0 0 0 0 0 0 0 0 0 0 0.25 0"/>
<feBlend mode="normal" in2="BackgroundImageFix" result="effect1_dropShadow_728_3"/>
<feBlend mode="normal" in="SourceGraphic" in2="effect1_dropShadow_728_3" result="shape"/>
</filter>
</defs>
</svg>
