<svg width="121" height="121" viewBox="0 0 121 121" fill="none" xmlns="http://www.w3.org/2000/svg">
<path d="M7.86499 39.6273V73.1444L11.0715 75.1409C14.157 77.1374 23.6555 80.9489 25.41 80.9489C25.894 80.9489 28.2535 81.3119 30.5525 81.7959C34.606 82.6429 41.019 82.7639 42.955 82.0984C43.439 81.9169 44.8305 81.6144 45.98 81.4329C52.635 80.2834 57.1725 78.8314 63.041 75.9274C66.066 74.4149 69.2725 73.2049 70.18 73.2049C71.148 73.2049 72.4185 72.4789 73.568 71.3294C74.536 70.3009 76.351 68.9094 77.6215 68.3044C78.892 67.6389 80.1625 66.4894 80.4045 65.7634C81.07 63.9484 82.159 63.1014 84.3975 62.5569C85.426 62.3149 87.241 60.9234 88.572 59.4714C89.8425 58.0194 91.6575 56.4464 92.6255 55.9019C93.654 55.4179 94.38 54.5104 94.38 53.8449C94.38 53.2399 94.864 52.5744 95.469 52.3929C96.1345 52.1509 96.9815 51.3039 97.405 50.5174C97.8285 49.6704 98.4335 49.0049 98.6755 49.0049C98.978 49.0049 100.127 47.4924 101.337 45.6169C103.818 41.7449 104.241 41.2004 106.782 38.4779C107.811 37.3889 109.807 34.8479 111.199 32.7909L113.74 29.0399V17.5449V6.04985H60.8025H7.86499V39.6273Z" fill="white"/>
<path d="M112.53 40.1115C112.53 40.535 112.046 41.3215 111.502 41.866C110.11 43.1365 109.263 44.2255 108.477 45.6775C107.206 47.9765 99.4015 56.3255 94.5615 60.621C94.3195 60.863 92.6255 62.436 90.8105 64.0695C88.9955 65.7635 87.3015 67.155 87.0595 67.155C86.8175 67.155 86.515 67.6995 86.3335 68.365C86.152 69.212 85.4865 69.575 84.458 69.575C83.5505 69.575 82.7035 69.9985 82.522 70.4825C82.28 70.9665 81.8565 71.39 81.554 71.39C81.2515 71.39 80.223 71.9345 79.376 72.6C74.8385 76.109 68.486 79.7995 66.3685 80.223C65.6425 80.344 64.493 80.707 63.8275 81.0095C59.9555 82.764 53.4215 84.5185 48.7025 85.063C47.3715 85.2445 44.9515 85.6075 43.2575 85.8495C39.688 86.4545 30.0685 86.152 28.556 85.3655C28.0115 85.1235 26.015 84.5185 24.2 84.095C22.385 83.6715 17.9685 81.917 14.399 80.1625L7.86499 76.956V83.853V90.75H60.863H113.861L113.68 65.0375C113.619 50.8805 113.317 39.325 113.014 39.325C112.772 39.325 112.53 39.688 112.53 40.1115Z" fill="white"/>
<path d="M8.28849 95.4084C8.04649 95.5899 7.86499 100.369 7.86499 105.996V116.16H60.5H113.135V105.572V94.9849H60.9235C32.186 94.9849 8.46999 95.1664 8.28849 95.4084ZM31.8835 98.4334C34.0615 99.4619 34.848 100.551 34.243 101.579C34.001 101.942 33.0935 101.761 31.8835 101.035C28.072 98.6754 23.6555 99.9459 22.385 103.697C21.1145 107.569 23.958 111.32 28.1325 111.32C29.8265 111.32 32.1255 110.352 32.7305 109.323C32.9725 109.021 33.4565 108.96 33.8195 109.142C36.3605 110.715 30.6735 114.163 26.741 113.437C23.6555 112.832 22.506 112.167 21.175 109.928C19.5415 107.266 19.602 102.91 21.296 100.732C23.7765 97.5864 28.072 96.6184 31.8835 98.4334ZM44.77 105.572C44.77 112.711 44.7095 113.135 43.56 113.135C42.4105 113.135 42.35 112.711 42.35 105.572C42.35 98.4334 42.4105 98.0099 43.56 98.0099C44.7095 98.0099 44.77 98.4334 44.77 105.572ZM61.71 99.2199C63.767 101.277 63.041 104.544 60.137 106.056L58.6245 106.843L60.8025 109.626C63.2225 112.893 63.3435 113.135 61.7705 113.135C61.105 113.135 59.5925 111.743 58.0195 109.626L55.3575 106.177L55.176 109.626C55.055 112.227 54.7525 113.135 54.1475 113.135C53.4215 113.135 53.24 111.804 53.24 105.572V98.0099H56.87C59.7135 98.0099 60.742 98.2519 61.71 99.2199ZM80.465 98.9174C80.465 99.6434 79.6785 99.8249 76.835 99.8249H73.205V101.942V104.06H76.5325C79.0735 104.06 79.86 104.241 79.86 104.967C79.86 105.693 79.0735 105.875 76.5325 105.875H73.205V108.476V111.138L76.351 111.078C78.9525 111.017 79.5575 111.199 79.739 112.106C79.9205 113.014 79.376 113.135 75.383 113.135H70.785V105.572V98.0099H75.625C79.497 98.0099 80.465 98.1914 80.465 98.9174ZM96.8 98.9174C99.462 100.309 100.43 102.124 100.43 105.693C100.43 108.355 100.127 109.202 98.6755 110.836C97.042 112.651 96.6185 112.832 92.323 113.014L87.725 113.256V105.633V98.0099H91.355C93.4725 98.0099 95.832 98.4334 96.8 98.9174Z" fill="white"/>
<path d="M55.055 101.882C55.055 103.999 55.1155 104.06 57.475 104.06C61.71 104.06 61.5285 100.309 57.233 99.9458C55.1155 99.7643 55.055 99.8248 55.055 101.882Z" fill="white"/>
<path d="M89.661 105.391L89.8425 111.017L92.565 110.836C96.1345 110.594 97.889 109.384 98.3125 106.843C99.099 102.729 96.0135 99.8248 90.871 99.8248C89.54 99.8248 89.4795 99.9458 89.661 105.391Z" fill="white"/>
</svg>
