<svg width="376" height="308" viewBox="0 0 376 308" fill="none" xmlns="http://www.w3.org/2000/svg">
<path d="M296 85L144 172H296V85Z" fill="#81B29A"/>
<path d="M296 138C296 184.944 229.738 223 148 223C66.2619 223 0 184.944 0 138C0 91.0558 68.7619 32 150.5 32C232.238 32 296 91.0558 296 138ZM66.5615 138C66.5615 163.832 103.023 176.5 148 176.5C192.977 176.5 229.439 163.832 229.439 138C229.439 112.168 192.977 91.2279 148 91.2279C103.023 91.2279 66.5615 112.168 66.5615 138Z" fill="#81B29A"/>
<path d="M296 138C296 184.944 229.738 223 148 223C66.2619 223 0 184.944 0 138C0 91.0558 68.7619 32 150.5 32C232.238 32 296 91.0558 296 138ZM66.5615 138C66.5615 163.832 103.023 176.5 148 176.5C192.977 176.5 229.439 163.832 229.439 138C229.439 112.168 192.977 91.2279 148 91.2279C103.023 91.2279 66.5615 112.168 66.5615 138Z" fill="#81B29A"/>
<path d="M296 85C296 131.944 229.738 170 148 170C66.2619 170 0 131.944 0 85C0 38.0558 66.2619 0 148 0C229.738 0 296 38.0558 296 85ZM66.5615 85C66.5615 110.832 103.023 123.5 148 123.5C192.977 123.5 229.439 110.832 229.439 85C229.439 59.1685 192.977 38.2279 148 38.2279C103.023 38.2279 66.5615 59.1685 66.5615 85Z" fill="#A9E19E"/>
<path d="M296 85C296 131.944 229.738 170 148 170C66.2619 170 0 131.944 0 85C0 38.0558 66.2619 0 148 0C229.738 0 296 38.0558 296 85ZM66.5615 85C66.5615 110.832 103.023 123.5 148 123.5C192.977 123.5 229.439 110.832 229.439 85C229.439 59.1685 192.977 38.2279 148 38.2279C103.023 38.2279 66.5615 59.1685 66.5615 85Z" fill="#A9E19E"/>
<path d="M0.5 200.5V85.9999C81.5 189 79 169.5 364 169.5C367.5 169.5 366 282.5 364 282.5C197 282.5 13 304.5 0.5 200.5Z" fill="#A9E19E"/>
<rect x="342" y="169" width="24" height="115" fill="#656464"/>
<path d="M321 260C321 257.239 323.239 255 326 255V255C328.761 255 331 257.239 331 260V284H321V260Z" fill="#656464"/>
<path d="M298 246C298 243.239 300.239 241 303 241V241C305.761 241 308 243.239 308 246V284H298V246Z" fill="#656464"/>
<path d="M275 260C275 257.239 277.239 255 280 255V255C282.761 255 285 257.239 285 260V284H275V260Z" fill="#656464"/>
<path d="M252 260C252 257.239 254.239 255 257 255V255C259.761 255 262 257.239 262 260V284H252V260Z" fill="#656464"/>
<path d="M229 246C229 243.239 231.239 241 234 241V241C236.761 241 239 243.239 239 246V284H229V246Z" fill="#656464"/>
<path d="M206 260C206 257.239 208.239 255 211 255V255C213.761 255 216 257.239 216 260V284H206V260Z" fill="#656464"/>
<path d="M183 260C183 257.239 185.239 255 188 255V255C190.761 255 193 257.239 193 260V284H183V260Z" fill="#656464"/>
</svg>
