<svg width="540" height="457" viewBox="0 0 540 457" fill="none" xmlns="http://www.w3.org/2000/svg">
<g id="rect1"  clip-path="url(#clip0_310_2)">
<path d="M50.4901 325.23L264.996 236.318C270.122 234.193 275.881 234.183 281.015 236.292L497.515 325.204C514.833 332.317 514.891 356.823 497.606 364.017L281.107 454.126C275.92 456.285 270.084 456.275 264.904 454.099L50.398 363.991C33.1979 356.765 33.2559 332.373 50.4901 325.23Z" fill="#4D908E"/>
</g>
<g id="rect2"  filter="url(#filter0_d_310_2)">
<path d="M48.4901 208.73L262.996 119.818C268.122 117.693 273.881 117.683 279.015 119.792L495.515 208.704C512.833 215.817 512.891 240.323 495.606 247.517L279.107 337.626C273.92 339.785 268.084 339.775 262.904 337.599L48.398 247.491C31.1979 240.265 31.2559 215.873 48.4901 208.73Z" fill="#99D98C"/>
</g>
<g id="rect3"  filter="url(#filter1_d_310_2)">
<path d="M46.4901 92.23L260.996 3.31765C266.122 1.19276 271.881 1.18337 277.015 3.29153L493.515 92.204C510.833 99.3165 510.891 123.823 493.606 131.017L277.107 221.126C271.92 223.285 266.084 223.275 260.904 221.099L46.398 130.991C29.1979 123.765 29.2559 99.3735 46.4901 92.23Z" fill="#73BC98"/>
</g>
<defs>
<filter id="filter0_d_310_2" x="27.5311" y="118.217" width="493.006" height="257.021" filterUnits="userSpaceOnUse" color-interpolation-filters="sRGB">
<feFlood flood-opacity="0" result="BackgroundImageFix"/>
<feColorMatrix in="SourceAlpha" type="matrix" values="0 0 0 0 0 0 0 0 0 0 0 0 0 0 0 0 0 0 127 0" result="hardAlpha"/>
<feOffset dx="2" dy="26"/>
<feGaussianBlur stdDeviation="5"/>
<feComposite in2="hardAlpha" operator="out"/>
<feColorMatrix type="matrix" values="0 0 0 0 0 0 0 0 0 0 0 0 0 0 0 0 0 0 0.03 0"/>
<feBlend mode="normal" in2="BackgroundImageFix" result="effect1_dropShadow_310_2"/>
<feBlend mode="normal" in="SourceGraphic" in2="effect1_dropShadow_310_2" result="shape"/>
</filter>
<filter id="filter1_d_310_2" x="25.5311" y="1.71729" width="493.006" height="257.021" filterUnits="userSpaceOnUse" color-interpolation-filters="sRGB">
<feFlood flood-opacity="0" result="BackgroundImageFix"/>
<feColorMatrix in="SourceAlpha" type="matrix" values="0 0 0 0 0 0 0 0 0 0 0 0 0 0 0 0 0 0 127 0" result="hardAlpha"/>
<feOffset dx="2" dy="26"/>
<feGaussianBlur stdDeviation="5"/>
<feComposite in2="hardAlpha" operator="out"/>
<feColorMatrix type="matrix" values="0 0 0 0 0 0 0 0 0 0 0 0 0 0 0 0 0 0 0.03 0"/>
<feBlend mode="normal" in2="BackgroundImageFix" result="effect1_dropShadow_310_2"/>
<feBlend mode="normal" in="SourceGraphic" in2="effect1_dropShadow_310_2" result="shape"/>
</filter>
<clipPath id="clip0_310_2">
<rect width="540" height="457" fill="white"/>
</clipPath>
</defs>
</svg>
