<svg width="465" height="464" viewBox="0 0 465 464" fill="none" xmlns="http://www.w3.org/2000/svg">
<g clip-path="url(#clip0_711_133)">
<line x1="425.039" y1="285.96" x2="271.6" y2="393.332" stroke="#D7D7D7" stroke-width="15"/>
<line x1="419.268" y1="287.17" x2="226.748" y2="248.687" stroke="#D7D7D7" stroke-width="15"/>
<line x1="260.167" y1="384.869" x2="360.03" y2="77.5511" stroke="#D7D7D7" stroke-width="15"/>
<line x1="54.5106" y1="256.489" x2="271.032" y2="380.681" stroke="#D7D7D7" stroke-width="15"/>
<line x1="49.8702" y1="255.55" x2="227.31" y2="233.887" stroke="#D7D7D7" stroke-width="15"/>
<line x1="43.5287" y1="256.31" x2="169.204" y2="41.4624" stroke="#D7D7D7" stroke-width="15"/>
<line x1="365.007" y1="84.3432" x2="182.992" y2="50.292" stroke="#D7D7D7" stroke-width="15"/>
<line x1="415.578" y1="285.258" x2="171.294" y2="53.589" stroke="#D7D7D7" stroke-width="15"/>
<line x1="181.111" y1="36.5466" x2="235.463" y2="239.391" stroke="#D7D7D7" stroke-width="15"/>
<path d="M329.497 384.882L324.673 401.487C323.795 404.51 321.401 406.855 318.36 407.67L267.385 421.328C264.204 422.181 260.812 421.228 258.54 418.844L247.907 407.686C246.636 406.352 244.987 405.441 243.182 405.074L230.219 402.442C227.234 401.836 224.757 399.761 223.639 396.927L220.336 388.56C219.744 387.059 219.565 385.427 219.82 383.835L221.247 374.907C221.808 371.401 224.376 368.553 227.805 367.634L241.502 363.964C244.406 363.186 246.73 361.009 247.696 358.161L252.286 344.625C253.252 341.777 255.576 339.6 258.48 338.822L297.238 328.437C300.224 327.637 303.411 328.425 305.68 330.524L317.711 341.655C318.751 342.618 320.005 343.321 321.369 343.708L334.96 347.558C338.009 348.422 340.379 350.826 341.2 353.888L343.147 361.156C343.897 363.956 343.253 366.946 341.417 369.188L331.177 381.69C330.407 382.63 329.836 383.716 329.497 384.882Z" fill="url(#paint0_linear_711_133)"/>
<path d="M366.609 22.807L392.965 40.5594C400.338 45.5257 396.812 57.0378 387.923 57.0239L378.654 57.0095C373.608 57.0017 369.541 61.1431 369.641 66.188L370.065 87.5189C370.132 90.9054 372.094 93.9673 375.144 95.4423L405.488 110.121C413.768 114.127 411.417 126.507 402.245 127.198L372.979 129.403C372.486 129.44 371.99 129.437 371.497 129.392L357.172 128.104C355.723 127.974 354.264 128.197 352.92 128.754L328.973 138.678C322.201 141.485 315.094 135.451 316.764 128.314L323.288 100.426C323.612 99.0393 324.261 97.7493 325.181 96.6622L330.611 90.2454C335.248 84.7651 331.917 76.3273 324.787 75.4927L311.759 73.9676C304.243 73.0879 301.102 63.8894 306.51 58.5966L328.734 36.8458C329.69 35.9102 330.843 35.1995 332.108 34.7653L345.309 30.2346C346.102 29.9624 346.853 29.5806 347.541 29.1004L356.428 22.8932C359.477 20.763 363.524 20.7287 366.609 22.807Z" fill="url(#paint1_linear_711_133)"/>
<path d="M188.634 240.798L192.284 223.896C192.948 220.819 195.173 218.312 198.149 217.287L248.043 200.094C251.156 199.021 254.607 199.735 257.04 201.954L268.428 212.341C269.789 213.582 271.498 214.375 273.324 214.615L286.439 216.333C289.46 216.729 292.075 218.626 293.389 221.374L297.27 229.49C297.966 230.945 298.258 232.561 298.115 234.167L297.316 243.173C297.003 246.709 294.64 249.731 291.283 250.887L277.877 255.507C275.034 256.486 272.869 258.821 272.105 261.729L268.472 275.553C267.708 278.461 265.543 280.796 262.7 281.775L224.763 294.848C221.841 295.855 218.607 295.292 216.197 293.356L203.417 283.095C202.311 282.207 201.011 281.593 199.623 281.303L185.796 278.413C182.694 277.764 180.161 275.532 179.129 272.535L176.677 265.421C175.733 262.681 176.166 259.653 177.842 257.288L187.181 244.099C187.883 243.108 188.377 241.985 188.634 240.798Z" fill="url(#paint2_linear_711_133)"/>
<path d="M138.59 47.4923L151.677 43.9857L177.618 37.0347L215.467 20.9431C216.946 20.3146 218.565 20.0933 220.158 20.3019L228.225 21.3589C233.647 22.0693 237.188 27.4107 235.73 32.6811L230.839 50.3739C230.68 50.9478 230.445 51.4978 230.14 52.0091C228.583 54.6187 228.992 57.9512 231.134 60.1067L245.046 74.1094C248.284 77.3686 248.547 82.5435 245.657 86.1147L231.122 104.073C229.23 106.411 226.294 107.649 223.299 107.373L169.972 102.45C168.213 102.288 166.541 101.612 165.164 100.506L150.623 88.8307C149.518 87.9429 148.218 87.3289 146.83 87.0388L133.003 84.1488C129.901 83.5003 127.368 81.2678 126.335 78.2712L123.884 71.1572C122.94 68.4168 123.373 65.3893 125.048 63.0238L133.574 50.9843C134.788 49.2709 136.562 48.0357 138.59 47.4923Z" fill="url(#paint3_linear_711_133)"/>
<path d="M103.346 285.168L80.3523 281.726C79.1305 281.544 77.8841 281.614 76.6908 281.934L44.9294 290.444C41.7486 291.297 38.3563 290.344 36.0846 287.96L25.4516 276.801C24.181 275.468 22.5319 274.557 20.7269 274.19L7.76403 271.558C4.77842 270.952 2.30216 268.876 1.18353 266.043L-2.11937 257.676C-2.71166 256.175 -2.88981 254.543 -2.63519 252.951L-1.67029 246.914C-0.900408 242.098 3.56577 238.771 8.40077 239.413L27.9088 242.002C33.96 242.805 38.8829 237.197 37.303 231.301C35.2537 223.652 43.7946 217.561 50.3585 221.989L60.4068 228.768C63.3585 230.759 67.2066 230.823 70.2228 228.931L93.4506 214.361C95.6075 213.008 98.2367 212.632 100.687 213.326L107.063 215.132C112.46 216.661 115.158 222.701 112.696 227.742L106.617 240.186C105.664 242.137 105.448 244.368 106.01 246.465L113.372 273.937C115.049 280.199 109.757 286.127 103.346 285.168Z" fill="url(#paint4_linear_711_133)"/>
<path d="M441.036 235.284L440.989 258.534C440.986 259.769 441.238 260.992 441.729 262.125L454.784 292.304C456.092 295.326 455.645 298.822 453.618 301.417L444.131 313.565C442.998 315.017 442.337 316.781 442.238 318.62L441.526 331.829C441.362 334.871 439.671 337.623 437.031 339.144L429.235 343.633C427.838 344.438 426.249 344.852 424.636 344.833L418.524 344.759C413.647 344.701 409.704 340.768 409.633 335.891L409.346 316.214C409.257 310.111 402.99 306.059 397.388 308.483C390.121 311.627 382.847 304.067 386.27 296.927L391.51 285.996C393.049 282.786 392.55 278.969 390.238 276.262L372.433 255.41C370.779 253.474 370.023 250.928 370.352 248.403L371.209 241.831C371.933 236.269 377.515 232.717 382.861 234.417L396.059 238.614C398.128 239.273 400.366 239.16 402.36 238.298L428.463 227.005C434.412 224.431 441.05 228.801 441.036 235.284Z" fill="url(#paint5_linear_711_133)"/>
</g>
<defs>
<linearGradient id="paint0_linear_711_133" x1="292.262" y1="414.663" x2="271.039" y2="335.457" gradientUnits="userSpaceOnUse">
<stop stop-color="#4D908E"/>
<stop offset="0.229167" stop-color="#73BC98"/>
</linearGradient>
<linearGradient id="paint1_linear_711_133" x1="338.518" y1="42.5099" x2="376.328" y2="148.847" gradientUnits="userSpaceOnUse">
<stop stop-color="#4D908E"/>
<stop offset="0.229167" stop-color="#73BC98"/>
</linearGradient>
<linearGradient id="paint2_linear_711_133" x1="238.323" y1="207.566" x2="250.408" y2="286.011" gradientUnits="userSpaceOnUse">
<stop offset="0.530702" stop-color="#577590"/>
<stop offset="1" stop-color="#4D908E"/>
</linearGradient>
<linearGradient id="paint3_linear_711_133" x1="185.53" y1="13.3022" x2="197.614" y2="91.7471" gradientUnits="userSpaceOnUse">
<stop offset="0.530702" stop-color="#4D908E"/>
<stop offset="1" stop-color="#99D98C"/>
</linearGradient>
<linearGradient id="paint4_linear_711_133" x1="69.8066" y1="283.779" x2="48.5834" y2="204.573" gradientUnits="userSpaceOnUse">
<stop stop-color="#73BC98"/>
<stop offset="0.4375" stop-color="#A9E19E"/>
</linearGradient>
<linearGradient id="paint5_linear_711_133" x1="398.448" y1="223.672" x2="434.036" y2="356.487" gradientUnits="userSpaceOnUse">
<stop offset="0.0432053" stop-color="#73BC98"/>
<stop offset="0.4375" stop-color="#A9E19E"/>
</linearGradient>
<clipPath id="clip0_711_133">
<rect width="465" height="464" fill="white"/>
</clipPath>
</defs>
</svg>
