<svg width="633" height="585" viewBox="0 0 633 585" fill="none" xmlns="http://www.w3.org/2000/svg">
<path d="M26.5625 172.606H436.889L170.5 434.5L26.5625 452V172.606Z" fill="#99D98C"/>
<path d="M436.888 585L26.5616 585L26.5616 450L157.5 438L436.888 172.606L436.888 585Z" fill="#43AA8B"/>
<path d="M549.22 60.0586C549.183 60.0213 549.144 59.984 549.107 59.9467L258.082 352.684C258.119 352.721 258.156 352.761 258.193 352.798C338.559 433.637 468.856 433.637 549.222 352.798C629.587 271.961 629.587 140.895 549.22 60.0586Z" fill="#4D908E"/>
<path d="M549.547 60.2006C469.121 -20.1039 338.824 -20.0669 258.446 60.3119C178.067 140.691 178.03 270.987 258.334 351.413L549.547 60.2006Z" fill="#43AA8B"/>
<path d="M159.496 451.67L188.906 434.933L452.764 169.682L476.164 133.331H294.535V173.67H407.889L145.422 437.522L159.496 451.67Z" fill="#F7F9FA"/>
<path d="M125.657 451.67C147.835 451.67 169.631 445.902 188.906 434.933L452.764 169.682L476.164 133.331H294.535V173.67H407.889L179.509 401.07C157.728 422.757 128.244 434.933 97.5075 434.933C89.8288 434.933 82.1691 434.172 74.6406 432.661L26.5 423V438.511L85.9612 451.67H125.657Z" fill="#F7F9FA"/>
<path d="M475.938 133.331L196.421 413.125C171.709 437.861 138.178 451.76 103.213 451.76C92.7747 451.76 82.3733 450.52 72.2277 448.065L26.5 437V454L65.2684 463.851C80.0121 467.597 95.2198 469.194 110.42 468.591C150.133 467.015 187.791 450.523 215.88 422.406L435.855 202.213V316.198H476.163V133.331H475.938Z" fill="#DBE1E8"/>
</svg>
