<svg width="512" height="512" viewBox="0 0 512 512" fill="none" xmlns="http://www.w3.org/2000/svg">
<path d="M256 512C397.385 512 512 397.385 512 256C512 114.615 397.385 0 256 0C114.615 0 0 114.615 0 256C0 397.385 114.615 512 256 512Z" fill="#0AAACB"/>
<path d="M143.6 368.438L285.464 510.302C403.295 496.797 496.79 403.305 510.301 285.476L368.432 143.607L143.6 368.438Z" fill="#0386A2"/>
<path d="M284.471 227.677C284.453 227.659 284.434 227.641 284.416 227.623L143.6 368.438C143.618 368.456 143.636 368.475 143.654 368.493C182.477 407.316 245.647 407.316 284.47 368.493C303.882 349.081 313.587 323.583 313.587 298.085C313.588 272.587 303.882 247.089 284.471 227.677Z" fill="#75D3FF"/>
<path d="M284.415 227.623C245.587 188.855 182.459 188.872 143.654 227.677C104.849 266.482 104.832 329.61 143.6 368.438L284.415 227.623Z" fill="#AAEBFF"/>
<path d="M368.487 143.661C368.469 143.643 368.45 143.625 368.432 143.607L227.095 284.944C227.113 284.962 227.131 284.981 227.149 284.999C266.179 324.029 329.458 324.029 368.488 284.999C407.517 245.97 407.517 182.69 368.487 143.661Z" fill="#05646D"/>
<path d="M368.432 143.607C329.398 104.632 266.16 104.65 227.149 143.661C188.138 182.672 188.12 245.91 227.095 284.944L368.432 143.607Z" fill="#058C99"/>
<path d="M178.734 333.304L193.019 325.217L321.182 197.054L332.548 179.49H244.326V198.981H299.385L171.898 326.468L178.734 333.304Z" fill="#F7F9FA"/>
<path d="M332.548 179.49L178.734 333.304L185.68 340.25L313.167 212.763V267.822H332.657V179.49H332.548Z" fill="#DBE1E8"/>
</svg>
