<svg width="2570" height="2175" viewBox="0 0 2570 2175" fill="none" xmlns="http://www.w3.org/2000/svg">
<g clip-path="url(#clip0_104_38)" id="layer1">
<path d="M158.748 977.806L1167.91 1040.2C1182.41 1041.1 1195.96 1047.69 1205.61 1058.54L1883.01 1819.94C1915.61 1856.59 1887.57 1914.36 1838.6 1911.4L819.352 1849.87C804.677 1848.99 790.967 1842.26 781.283 1831.2L113.971 1068.93C81.7756 1032.15 109.963 974.789 158.748 977.806Z" fill="#4D908E"/>
</g>
<g filter="url(#filter0_d_104_38)" id="layer2">
<path d="M129.733 862.029L1064.03 474.692C1077.46 469.125 1092.54 469.1 1105.99 474.624L2048.97 861.961C2094.32 880.591 2094.48 944.769 2049.21 963.612L1106.23 1356.16C1092.64 1361.82 1077.36 1361.79 1063.79 1356.09L129.492 963.542C84.4489 944.617 84.6004 880.74 129.733 862.029Z" fill="#99D98C"/>
</g>
<g filter="url(#filter1_d_104_38)" id="layer3">
<path d="M92.9417 739.997L808.068 24.7809C818.346 14.5013 832.276 8.70879 846.812 8.66949L1866.24 5.91102C1915.27 5.77835 1939.96 65.0195 1905.34 99.7424L1184.18 823.094C1173.79 833.516 1159.66 839.339 1144.94 839.261L131.543 833.884C82.6865 833.625 58.3964 774.546 92.9417 739.997Z" fill="#73BC98"/>
</g>

</svg>
