<svg width="633" height="585" viewBox="0 0 633 585" fill="none" xmlns="http://www.w3.org/2000/svg">
<g class="right">
<path d="M147.749 242.6L181.564 251.992L568.914 252.285L612.625 242.952L479.207 109.533L449.775 138.965L533.041 222.231L147.734 221.94L147.749 242.6Z" fill="#F7F9FA"/>
<path d="M613.835 242.788L148.353 244.074L148.295 265.095L534.105 264.028L450.563 347.57L479.972 376.98L614 242.952L613.835 242.788Z" fill="#DBE1E8"/>
<path d="M267.711 245.697L315.126 252.285L568.914 252.285L612.625 242.952L479.206 109.533L449.774 138.965L533.041 222.231L289.7 222.231L267.711 245.697Z" fill="#52B69A"/>
<path d="M612.461 242.788L267.024 242.787L249.157 264.028L532.73 264.028L449.188 347.57L478.598 376.98L612.625 242.952L612.461 242.788Z" fill="#34A0A4"/>
</g>
<g class="left">
<path d="M483.876 291.399L450.061 282.007L62.711 281.714L19.0001 291.047L152.419 424.466L181.851 395.034L98.5845 311.768L483.892 312.06L483.876 291.399Z" fill="#F7F9FA"/>
<path d="M19.1651 291.212L484.647 289.925L484.705 268.904L98.8957 269.971L182.438 186.429L153.028 157.02L19.0006 291.047L19.1651 291.212Z" fill="#DBE1E8"/>
<path d="M310.315 281.714L62.7108 281.714L19 291.047L152.419 424.466L181.85 395.034L98.5844 311.768L286.265 311.768L310.315 281.714Z" fill="#52B69A"/>
<path d="M19.1651 291.212L306.193 291.212L323.372 269.971L98.8956 269.971L182.437 186.429L153.028 157.02L19.0006 291.048L19.1651 291.212Z" fill="#99D98C"/>
</g>
</svg>
