<svg width="3639" height="3043" viewBox="0 0 3639 3043" fill="none" xmlns="http://www.w3.org/2000/svg">
<path d="M1599.67 2794.49L1160.7 2708.06C830.766 2643.05 597.122 2351.27 579.421 2015.9C568.093 1807.59 546.853 1600.02 507.912 1394.66L498 1342.95L630.398 1341.48C793.241 1340 949.004 1362.9 1087.77 1412.39L1599.67 2794.49Z" fill="#05917D"/>
<path d="M1403.23 2794.49L1124.79 2196.51C915.779 1747.85 1038.35 1221.22 1392.6 915.982C1612.95 726.219 1823.37 523.953 2016.09 304.769L2065.68 248.87L2179.75 405.535C2320.74 598.975 2427.73 804.184 2491.49 1012.33L1403.23 2794.49Z" fill="#00AA95"/>
<path d="M3098.85 998.304L3062.05 806.065C2878.75 1253.64 2409.53 1491.37 2139.89 1800.28C1669.25 2340.31 1400.32 2794.49 1400.32 2794.49H1679.16C2917.68 2793.75 3277.91 1927.21 3098.85 998.304Z" fill="#00CC76"/>
<path d="M3058.06 806.065L2990.96 833.958C2824.98 902.954 2655.46 963.143 2484.53 1015.26C2382.11 1046.82 2278.99 1075.45 2175.86 1101.87C1730.88 1216.37 1400.32 1634.02 1400.32 2131.68V2794.49C1399.61 2794.49 2555.87 2036.26 3058.06 806.065Z" fill="#A5E887"/>
</svg>
