<svg width="786" height="599" viewBox="0 0 786 599" fill="none" xmlns="http://www.w3.org/2000/svg">
<path d="M142 432.722V381.529L210.24 405.62L261.8 452.798H468.542L521.618 405.62H623.726L649 374V418.669L623.726 452.798H521.618L468.542 506H261.8L210.24 452.798L142 432.722Z" fill="#4D908E"/>
<path d="M217.206 310.282L263.859 263.167C265.549 261.46 267.852 260.5 270.254 260.5H516.968C519.533 260.5 521.976 261.594 523.684 263.508L564.82 309.617C565.919 310.849 567.335 311.754 568.913 312.235L636.782 332.91C639.989 333.887 642.387 336.566 643.005 339.861L648.783 370.674C649.24 373.115 648.669 375.637 647.203 377.643L623.696 409.81C622.002 412.129 619.302 413.5 616.43 413.5H524.499C522.248 413.5 520.079 414.343 518.42 415.863L470.08 460.137C468.421 461.657 466.252 462.5 464.001 462.5H270.149C267.809 462.5 265.561 461.589 263.881 459.959L217.378 414.837C216.47 413.956 215.385 413.276 214.196 412.842L147.915 388.658C144.363 387.362 142 383.984 142 380.203V349.877C142 346.306 144.111 343.073 147.381 341.637L214.43 312.189C215.467 311.734 216.409 311.087 217.206 310.282Z" fill="url(#paint0_linear_101_19)"/>
<path d="M508.753 186.885C457.582 251.083 388.664 163.494 341.206 192.359C340.742 192.641 341.206 88.3468 341.206 88.3468C400.632 67.9424 450.566 150.057 506.69 88.3468C506.69 88.3468 509.897 185.449 508.753 186.885Z" fill="url(#paint1_linear_101_19)"/>
<path d="M341.5 311.5C343.224 310.486 341.5 89.5001 341.5 89.5001C341.5 89.5001 331 75.5 316.5 89.5001C315.052 90.898 316.5 311.5 316.5 311.5C316.5 311.5 333 316.5 341.5 311.5Z" fill="#577590"/>
<defs>
<linearGradient id="paint0_linear_101_19" x1="395.75" y1="260.5" x2="395.75" y2="462.5" gradientUnits="userSpaceOnUse">
<stop stop-color="#4D908E"/>
<stop offset="0.229167" stop-color="#73BC98"/>
</linearGradient>
<linearGradient id="paint1_linear_101_19" x1="340.794" y1="169.964" x2="504.428" y2="154.849" gradientUnits="userSpaceOnUse">
<stop stop-color="#88CB9A"/>
<stop offset="0.630444" stop-color="#99D98C"/>
</linearGradient>
</defs>
</svg>
