<svg width="63" height="123" viewBox="0 0 63 123" fill="none" xmlns="http://www.w3.org/2000/svg">
<path d="M0 18.3258C0 8.20475 8.20474 0 18.3258 0H34.7816C44.9027 0 53.1075 8.20475 53.1075 18.3258C53.1075 28.4469 44.9027 36.6516 34.7817 36.6516H18.3258C8.20476 36.6516 0 28.4469 0 18.3258Z" fill="#577590"/>
<path d="M38.1475 6.73193H14.2118L23.7861 19.7046V28.673L28.5732 31.4157V19.7046L38.1475 6.73193Z" fill="white"/>
<path d="M15.6907 63.2538C15.6907 54.3172 22.9353 47.0726 31.8719 47.0726H46.5821C55.5187 47.0726 62.7633 54.3172 62.7633 63.2538C62.7633 72.1904 55.5187 79.435 46.5821 79.435H31.8719C22.9353 79.435 15.6907 72.1904 15.6907 63.2538Z" fill="#577590"/>
<path d="M48.9711 52.9567H29.483C29.0144 52.9567 28.6357 53.3353 28.6357 53.804V73.292C28.6357 73.7607 29.0144 74.1393 29.483 74.1393H48.9711C49.4397 74.1393 49.8184 73.7607 49.8184 73.292V53.804C49.8184 53.3353 49.4397 52.9567 48.9711 52.9567ZM37.3259 70.247H35.9808C35.9226 70.247 35.8617 70.2179 35.8246 70.1702L34.8846 69.0184L33.9446 70.1702C33.9263 70.1942 33.9027 70.2136 33.8756 70.227C33.8484 70.2403 33.8186 70.2471 33.7884 70.247H32.4433C32.2686 70.247 32.1732 70.0378 32.2897 69.9001L33.9499 67.8666L32.3295 65.8834C32.2156 65.7457 32.3109 65.5365 32.4857 65.5365H33.8334C33.8917 65.5365 33.9526 65.5656 33.9897 65.6133L34.8899 66.7148L35.7902 65.6133C35.8299 65.563 35.8855 65.5365 35.9464 65.5365H37.2915C37.4663 65.5365 37.5616 65.7457 37.4477 65.8834L35.8246 67.8639L37.4848 69.8975C37.596 70.0378 37.5007 70.247 37.3259 70.247ZM37.5324 60.1323C37.5324 60.1905 37.4954 60.2382 37.4477 60.2382H35.626V62.0573C35.626 62.1076 35.5784 62.1446 35.5201 62.1446H34.2491C34.1909 62.1446 34.1432 62.1076 34.1432 62.0599V60.2382H32.3215C32.2739 60.2382 32.2368 60.1905 32.2368 60.1323V58.8613C32.2368 58.8031 32.2739 58.7554 32.3215 58.7554H34.1432V56.9337C34.1432 56.886 34.1909 56.849 34.2491 56.849H35.5201C35.5784 56.849 35.626 56.886 35.626 56.9337V58.7554H37.4451C37.4954 58.7554 37.5324 58.8031 37.5324 58.8613V60.1323ZM46.2173 69.9028C46.2173 69.961 46.1803 70.0087 46.1326 70.0087H41.0064C40.9587 70.0087 40.9217 69.961 40.9217 69.9028V68.6318C40.9217 68.5736 40.9587 68.5259 41.0064 68.5259H46.1299C46.1803 68.5259 46.2173 68.5736 46.2173 68.6318V69.9028ZM46.2173 67.149C46.2173 67.2073 46.1803 67.2549 46.1326 67.2549H41.0064C40.9587 67.2549 40.9217 67.2073 40.9217 67.149V65.8781C40.9217 65.8198 40.9587 65.7722 41.0064 65.7722H46.1299C46.1803 65.7722 46.2173 65.8198 46.2173 65.8781V67.149ZM46.2173 60.1323C46.2173 60.1905 46.1803 60.2382 46.1326 60.2382H41.0064C40.9587 60.2382 40.9217 60.1905 40.9217 60.1323V58.8613C40.9217 58.8031 40.9587 58.7554 41.0064 58.7554H46.1299C46.1803 58.7554 46.2173 58.8031 46.2173 58.8613V60.1323Z" fill="white"/>
<path d="M3.68481 106.819C3.68481 97.8823 10.9294 90.6377 19.866 90.6377H34.5762C43.5128 90.6377 50.7573 97.8823 50.7573 106.819C50.7573 115.755 43.5128 123 34.5762 123H19.866C10.9294 123 3.68481 115.755 3.68481 106.819Z" fill="#577590"/>
<path d="M19.3757 101.278L19.3757 103.513C19.3757 105.842 21.2706 107.737 23.6001 107.737C24.5983 107.737 25.4106 108.549 25.4106 109.547L25.4106 111.378C24.0093 111.879 22.9966 113.206 22.9966 114.777C22.9966 116.774 24.6212 118.398 26.6176 118.398C28.614 118.398 30.2386 116.774 30.2386 114.777C30.2386 113.206 29.2259 111.879 27.8246 111.38L27.8246 109.547C27.8246 108.549 28.6369 107.737 29.6351 107.737C31.9646 107.737 33.8595 105.842 33.8595 103.513L33.8595 101.278C35.2608 100.778 36.2735 99.451 36.2735 97.8795C36.2735 95.8832 34.6489 94.2586 32.6525 94.2586C30.6562 94.2586 29.0316 95.8832 29.0316 97.8795C29.0316 99.451 30.0442 100.778 31.4455 101.278L31.4455 103.513C31.4455 104.511 30.6332 105.323 29.6351 105.323C28.4534 105.323 27.3852 105.814 26.6176 106.6C25.85 105.814 24.7818 105.323 23.6001 105.323C22.6019 105.323 21.7896 104.511 21.7896 103.513L21.7896 101.278C23.191 100.778 24.2036 99.451 24.2036 97.8795C24.2036 95.8832 22.579 94.2586 20.5827 94.2586C18.5863 94.2586 16.9617 95.8832 16.9617 97.8795C16.9617 99.451 17.9744 100.778 19.3757 101.278ZM32.6525 96.6725C33.3188 96.6725 33.8595 97.2145 33.8595 97.8795C33.8595 98.5446 33.3188 99.0865 32.6525 99.0865C31.9863 99.0865 31.4455 98.5446 31.4455 97.8795C31.4455 97.2145 31.9863 96.6725 32.6525 96.6725ZM26.6176 115.984C25.9513 115.984 25.4106 115.442 25.4106 114.777C25.4106 114.112 25.9513 113.57 26.6176 113.57C27.2839 113.57 27.8246 114.112 27.8246 114.777C27.8246 115.442 27.2839 115.984 26.6176 115.984ZM20.5827 96.6725C21.2489 96.6725 21.7896 97.2145 21.7896 97.8795C21.7896 98.5446 21.2489 99.0865 20.5827 99.0865C19.9164 99.0865 19.3757 98.5446 19.3757 97.8795C19.3757 97.2145 19.9164 96.6725 20.5827 96.6725Z" fill="white"/>
</svg>
