<svg width="58" height="139" viewBox="0 0 58 139" fill="none" xmlns="http://www.w3.org/2000/svg">
<path d="M51.0517 57.5952L37.6789 70.921H35.8415L31.5633 66.6578L22.0882 76.0996L20.2509 74.2686L30.6446 63.9114H32.482L36.7602 68.1746L50.1329 54.8489H51.9703L57.1672 60.0275L55.3298 61.8584L51.0517 57.5952Z" fill="#73BC98"/>
<circle cx="31.898" cy="65.5423" r="3.20123" fill="#A9E19E"/>
<circle cx="51.0372" cy="55.8023" r="2.9969" fill="#4D908E"/>
<path d="M56.2137 83.0371V85.6351H21.1413L19.8423 84.3361V49.2637H22.4402V83.0371H56.2137Z" fill="#577590"/>
<path d="M13.004 132.623V96.1469L12.7945 96.2542C5.78052 99.8469 1.36841 107.064 1.36841 114.945V125.731C1.36841 131.703 7.76691 135.493 13.004 132.623Z" fill="#73BC98"/>
<path d="M29.1804 102.21L15.4636 95.9576V132.338L29.1804 138.054V102.21Z" fill="#4D908E"/>
<path d="M31.4508 138.243V101.949C36.5457 98.9281 42.9918 102.6 42.9918 108.523V119.048C42.9918 127.088 38.5525 134.472 31.4508 138.243Z" fill="#577590"/>
<path d="M39.7812 11.0251H0C0 4.9361 4.93609 0 11.0251 0H28.7562C34.8451 0 39.7812 4.9361 39.7812 11.0251Z" fill="#577590"/>
<path d="M13.7744 39.7812L13.7744 15.5715L25.8013 15.5715L25.8013 39.7812L13.7744 39.7812Z" fill="#73BC98"/>
<path d="M29.502 39.7812L29.502 15.5715L39.7814 15.5715L39.7814 29.5019C39.7814 35.179 35.1791 39.7812 29.502 39.7812Z" fill="#4D908E"/>
<path d="M2.99669e-05 29.5019L3.05176e-05 15.5715L10.2794 15.5715L10.2794 39.7812C4.60227 39.7812 2.97424e-05 35.179 2.99669e-05 29.5019Z" fill="#88CB9A"/>
</svg>
